<svg xmlns="http://www.w3.org/2000/svg" width="194.6171875" height="47.5" style="width:194.6171875px;height:47.5px;font-family:Asana-Math, Asana;background:transparent;"><g><g><g><g><g><g style="transform:matrix(1,0,0,1,12.1328125,19);"><path d="M316 -3C388 -3 437 8 489 34C645 114 741 265 741 431C741 529 711 599 650 642C604 675 519 693 424 692L220 689L210 689C201 689 198 689 97 692L94 664L147 662C171 661 182 653 182 635C182 621 178 589 173 559L86 55C81 31 56 29 33 23L28 -3L121 0L176 0C211 0 282 -3 316 -3ZM384 655C566 655 649 579 649 415C649 225 549 41 329 41C285 41 236 46 168 56C168 68 169 75 172 93L268 650C291 650 349 655 384 655ZM794 152C794 46 839 -11 922 -11C977 -11 1037 15 1082 57C1144 116 1188 230 1188 331C1188 425 1138 482 1055 482C951 482 794 382 794 152ZM1018 444C1079 444 1112 399 1112 315C1112 219 1081 113 1037 60C1019 39 993 27 962 27C904 27 870 72 870 151C870 264 909 387 958 427C971 438 994 444 1018 444ZM1251 148C1246 97 1240 62 1229 16C1267 -2 1301 -11 1336 -11C1385 -11 1431 7 1482 47C1533 87 1554 124 1554 174C1554 228 1522 257 1448 271L1405 279C1345 290 1326 307 1326 348C1326 401 1371 442 1428 442C1469 442 1507 424 1523 397L1523 342L1546 342C1550 377 1554 404 1565 455C1526 474 1498 482 1465 482C1413 482 1352 452 1304 404C1278 377 1267 352 1267 316C1267 260 1298 228 1364 215L1427 203C1471 195 1487 177 1487 138C1487 73 1441 29 1370 29C1335 29 1304 40 1276 64L1276 148ZM1936 111L1912 94C1859 56 1811 36 1775 36C1728 36 1699 73 1699 133C1699 158 1702 185 1707 214C1724 218 1833 248 1858 259C1943 296 1982 342 1982 404C1982 451 1948 482 1898 482C1830 496 1720 423 1683 349C1653 299 1623 180 1623 113C1623 35 1667 -11 1739 -11C1796 -11 1852 17 1944 92ZM1721 274C1738 343 1758 386 1787 412C1805 428 1836 440 1860 440C1889 440 1908 420 1908 388C1908 344 1873 297 1821 272C1793 258 1757 247 1712 237ZM2421 -11C2477 -11 2592 62 2635 125C2676 186 2710 296 2710 371C2710 438 2687 482 2651 482C2609 482 2556 456 2504 409C2463 374 2443 348 2407 289L2431 408C2434 425 2436 440 2436 452C2436 471 2428 482 2414 482C2393 482 2355 461 2281 408L2253 388L2260 368L2292 389C2320 407 2331 412 2340 412C2350 412 2357 403 2357 389C2357 381 2355 361 2353 351L2295 8C2285 -52 2266 -143 2246 -233L2238 -270L2245 -276C2266 -269 2286 -264 2318 -259L2360 3C2381 -4 2403 -11 2421 -11ZM2388 165C2410 293 2517 424 2600 424C2626 424 2638 402 2638 356C2638 275 2598 156 2545 80C2525 51 2493 36 2452 36C2421 36 2396 43 2370 59ZM3072 111L3048 94C2995 56 2947 36 2911 36C2864 36 2835 73 2835 133C2835 158 2838 185 2843 214C2860 218 2969 248 2994 259C3079 296 3118 342 3118 404C3118 451 3084 482 3034 482C2966 496 2856 423 2819 349C2789 299 2759 180 2759 113C2759 35 2803 -11 2875 -11C2932 -11 2988 17 3080 92ZM2857 274C2874 343 2894 386 2923 412C2941 428 2972 440 2996 440C3025 440 3044 420 3044 388C3044 344 3009 297 2957 272C2929 258 2893 247 2848 237ZM3500 365C3503 403 3508 435 3516 476C3505 481 3501 482 3496 482C3465 482 3434 458 3398 407C3359 351 3320 291 3304 256L3336 408C3340 425 3342 438 3342 450C3342 470 3334 482 3319 482C3298 482 3260 461 3186 408L3158 388L3165 368L3197 389C3225 407 3236 412 3245 412C3255 412 3262 403 3262 390C3262 332 3219 126 3179 -2L3189 -9C3204 -4 3220 -1 3243 4L3256 6L3282 126C3300 209 3323 262 3367 319C3401 363 3428 384 3450 384C3465 384 3475 379 3486 365ZM4114 437L4098 437L4119 549C4135 635 4163 673 4209 673C4239 673 4266 658 4281 634L4291 638C4296 654 4306 685 4314 705L4319 720C4303 727 4272 733 4249 733C4238 733 4222 730 4214 726C4190 715 4108 654 4085 630C4063 608 4051 578 4040 521L4025 442C3984 422 3964 414 3939 405L3934 383L4015 383L4006 327C3976 132 3939 -54 3917 -123C3899 -182 3869 -213 3833 -213C3810 -213 3799 -206 3781 -184L3767 -188C3763 -211 3749 -259 3744 -268C3753 -273 3768 -276 3779 -276C3820 -276 3874 -245 3913 -198C3984 -114 4004 -18 4088 383L4192 383C4196 402 4203 425 4209 439L4205 446C4176 439 4177 437 4114 437ZM4353 388L4360 368L4392 389C4429 412 4432 414 4439 414C4449 414 4457 404 4457 391C4457 384 4453 361 4449 347L4383 107C4375 76 4370 49 4370 30C4370 6 4381 -9 4400 -9C4426 -9 4462 12 4560 85L4550 103L4524 86C4495 67 4472 56 4463 56C4456 56 4450 66 4450 76C4450 86 4452 95 4457 116L4534 420C4538 437 4540 448 4540 456C4540 473 4531 482 4515 482C4493 482 4456 461 4381 408ZM4547 712C4518 712 4489 679 4489 645C4489 620 4504 604 4528 604C4559 604 4583 633 4583 671C4583 695 4568 712 4547 712ZM4924 111L4900 94C4847 56 4799 36 4763 36C4716 36 4687 73 4687 133C4687 158 4690 185 4695 214C4712 218 4821 248 4846 259C4931 296 4970 342 4970 404C4970 451 4936 482 4886 482C4818 496 4708 423 4671 349C4641 299 4611 180 4611 113C4611 35 4655 -11 4727 -11C4784 -11 4840 17 4932 92ZM4709 274C4726 343 4746 386 4775 412C4793 428 4824 440 4848 440C4877 440 4896 420 4896 388C4896 344 4861 297 4809 272C4781 258 4745 247 4700 237ZM5235 722L5223 733C5171 707 5135 698 5063 691L5059 670L5107 670C5131 670 5141 663 5141 648C5141 645 5141 640 5138 622C5127 567 5054 182 5039 132C5026 82 5020 52 5020 31C5020 6 5031 -9 5050 -9C5076 -9 5112 12 5210 85L5200 103L5174 86C5145 67 5123 56 5113 56C5106 56 5100 66 5100 76C5100 82 5101 89 5104 104ZM5744 722L5732 733C5680 707 5644 698 5572 691L5568 670L5616 670C5640 670 5650 663 5650 646C5650 638 5649 629 5648 622L5620 468C5590 477 5563 482 5538 482C5469 482 5375 410 5329 323C5298 265 5278 170 5278 86C5278 21 5293 -11 5322 -11C5349 -11 5386 6 5420 33C5474 77 5507 116 5574 217L5551 126C5540 82 5535 50 5535 24C5535 3 5544 -9 5561 -9C5578 -9 5602 3 5636 28L5717 88L5707 107L5663 76C5649 66 5633 59 5624 59C5616 59 5610 68 5610 82C5610 90 5611 99 5618 128ZM5375 59C5359 59 5350 73 5350 98C5350 224 5396 380 5445 418C5458 428 5477 433 5504 433C5548 433 5577 427 5610 410L5598 351C5561 171 5420 59 5375 59Z" stroke="rgb(0, 0, 0)" stroke-width="8" fill="rgb(0, 0, 0)" style="transform:matrix(0.017,0,0,-0.017,0,0);"></path></g></g></g><g><g><g style="transform:matrix(1,0,0,1,2,45);"><path d="M390 646L463 646C541 646 577 641 580 629C583 621 585 602 584 592L580 528L608 528L635 692L544 691C456 690 388 689 353 689C316 689 252 690 166 691L71 692L53 528L82 528L97 588C102 610 109 626 115 633C121 640 159 646 196 646L308 646L222 125C206 34 204 31 164 28L113 25L109 -3L166 -2C206 -1 235 0 251 0C270 0 301 -1 340 -2L384 -3L387 25L328 28C302 29 292 37 292 58C292 67 293 74 296 93ZM715 664L770 662C794 661 805 653 805 635L722 125C705 34 704 31 664 28L623 25L619 -3L661 -2C702 -1 733 0 751 0C768 0 797 -1 837 -2L890 -3L893 25L828 28C802 29 792 37 792 58C792 67 793 74 796 93L894 648C930 654 946 656 965 656C1067 656 1116 612 1116 519C1116 411 1044 323 956 323C934 323 914 328 877 342L879 311C916 293 936 288 965 288C1094 288 1204 405 1204 541C1204 642 1141 695 1022 692L718 692ZM1325 664L1381 662C1405 661 1416 653 1416 635C1416 621 1412 589 1407 559L1332 125C1316 34 1314 32 1274 28L1233 25L1229 -3L1271 -2C1318 0 1337 0 1361 0L1458 -3L1484 -3L1487 25L1438 28C1411 30 1402 38 1402 58C1402 67 1403 76 1406 93L1507 648C1536 654 1556 656 1583 656C1670 656 1716 617 1716 543C1716 448 1638 378 1534 378L1490 378L1487 367C1621 172 1652 124 1727 -3L1812 0C1813 0 1827 -1 1846 -3L1859 -3L1859 24C1819 29 1808 37 1779 79L1595 354C1650 364 1679 376 1715 402C1773 444 1804 499 1804 560C1804 646 1740 693 1629 691L1328 691ZM2303 267L2172 213L2167 204L2203 153L2213 153L2319 241L2337 99L2347 95L2415 121L2415 131L2347 253L2485 233L2494 241L2494 303L2488 307L2349 283L2418 408L2415 423L2353 442L2344 438L2318 295L2223 393L2213 393L2169 341L2172 331ZM2875 664L2922 662C2946 661 2957 653 2957 636C2957 629 2951 576 2948 559L2876 125C2861 36 2858 31 2818 28L2782 25L2779 -3L2811 -3L2905 0L2999 -3L3031 -3L3034 25L2982 28C2956 30 2946 37 2946 57C2946 63 2947 74 2948 78L3037 613C3044 652 3049 657 3088 661L3123 664L3126 692L3020 689C3003 689 2985 689 2942 690L2878 692ZM3212 471C3212 386 3250 339 3334 319L3429 296C3483 283 3510 248 3510 191C3510 96 3439 30 3336 30C3282 30 3244 42 3200 73L3200 172L3170 172C3164 117 3157 72 3146 20C3195 -5 3248 -18 3301 -18C3456 -18 3589 99 3589 234C3589 313 3546 355 3445 377L3380 391C3314 405 3284 442 3284 508C3284 595 3351 658 3443 658C3492 658 3525 645 3555 613L3555 537L3585 537C3589 591 3596 629 3610 672C3565 696 3525 706 3478 706C3354 706 3212 614 3212 471ZM3945 646L4051 650C4113 650 4153 641 4154 626L4162 537L4186 537C4189 600 4196 651 4207 689C4185 691 4157 692 4140 692L4099 691L3934 689L3905 689C3880 689 3840 690 3802 691L3753 692L3750 664L3806 662C3830 661 3841 652 3841 635C3841 621 3837 589 3832 559L3757 125C3740 33 3740 32 3699 28L3663 25L3659 -3L3693 -2C3733 -1 3765 0 3786 0C3804 0 3833 -1 3872 -2L3924 -3L3927 25L3863 28C3836 29 3827 37 3827 57C3827 63 3828 74 3829 78L3865 301L3982 301C4009 301 4040 300 4088 298L4114 297L4133 342L4129 349C4048 345 3988 343 3910 343L3873 343L3919 614C3922 630 3923 635 3928 646ZM4631 267L4500 213L4495 204L4531 153L4541 153L4647 241L4665 99L4675 95L4743 121L4743 131L4675 253L4813 233L4822 241L4822 303L4816 307L4677 283L4746 408L4743 423L4681 442L4672 438L4646 295L4551 393L4541 393L4497 341L4500 331ZM5208 471C5208 386 5246 339 5330 319L5425 296C5479 283 5506 248 5506 191C5506 96 5435 30 5332 30C5278 30 5240 42 5196 73L5196 172L5166 172C5160 117 5153 72 5142 20C5191 -5 5244 -18 5297 -18C5452 -18 5585 99 5585 234C5585 313 5542 355 5441 377L5376 391C5310 405 5280 442 5280 508C5280 595 5347 658 5439 658C5488 658 5521 645 5551 613L5551 537L5581 537C5585 591 5592 629 5606 672C5561 696 5521 706 5474 706C5350 706 5208 614 5208 471ZM5700 284C5700 90 5807 -18 5998 -18C6094 -18 6165 5 6255 67L6265 103L6255 110C6161 53 6109 35 6031 35C5874 35 5788 131 5788 309C5788 447 5845 653 6073 653C6144 653 6196 639 6252 603L6252 519L6279 519C6284 576 6292 619 6306 665C6230 694 6173 706 6111 706C5931 706 5700 578 5700 284ZM6447 664L6502 662C6526 661 6537 653 6537 635L6454 125C6437 34 6436 31 6396 28L6355 25L6351 -3L6393 -2C6434 -1 6465 0 6483 0C6500 0 6529 -1 6569 -2L6622 -3L6625 25L6560 28C6534 29 6524 37 6524 58C6524 67 6525 74 6528 93L6626 648C6662 654 6678 656 6697 656C6799 656 6848 612 6848 519C6848 411 6776 323 6688 323C6666 323 6646 328 6609 342L6611 311C6648 293 6668 288 6697 288C6826 288 6936 405 6936 541C6936 642 6873 695 6754 692L6450 692Z" stroke="rgb(0, 0, 0)" stroke-width="8" fill="rgb(0, 0, 0)" style="transform:matrix(0.017,0,0,-0.017,0,0);"></path></g></g></g><line style="fill:none;stroke-width:1px;stroke:rgb(0, 0, 0);" x1="2" y1="27.25" x2="120.1875" y2="27.25"></line></g><g style="transform:matrix(1,0,0,1,121.8828125,31.5);"><path d="" stroke="rgb(0, 0, 0)" stroke-width="8" fill="rgb(0, 0, 0)" style="transform:matrix(0.017,0,0,-0.017,0,0);"></path></g><g style="transform:matrix(1,0,0,1,131.2109375,31.5);"><path d="M604 347L604 406L65 406L65 347ZM604 134L604 193L65 193L65 134Z" stroke="rgb(0, 0, 0)" stroke-width="8" fill="rgb(0, 0, 0)" style="transform:matrix(0.017,0,0,-0.017,0,0);"></path></g><g style="transform:matrix(1,0,0,1,147.6640625,31.5);"><path d="M1186 664L1199 695C1171 699 1024 701 1022 692L937 536L691 114L541 692C518 686 395 690 374 692L371 664L397 662C449 658 467 648 467 622C467 616 321 100 319 93C303 41 288 28 233 23L230 -3L269 -2C303 -1 328 0 342 0C356 0 382 -1 417 -2L452 -3L455 25L417 28C385 30 368 40 368 55C368 65 370 78 375 96L499 560L648 -18L671 -18L728 86L967 500L1019 587L982 67C978 39 966 32 915 28L884 25L881 -3L928 -2C970 -1 1000 0 1015 0C1031 0 1061 -1 1102 -2L1148 -3L1151 25L1114 28C1078 31 1060 42 1060 63L1061 100L1102 631C1104 650 1119 660 1148 662ZM1997 664L2000 692L1984 692L1893 689C1878 689 1857 689 1813 690L1750 692L1747 664L1795 662C1819 661 1830 653 1830 634C1830 629 1830 626 1829 622L1758 177C1710 119 1680 93 1629 68C1591 48 1554 39 1516 39C1431 39 1377 84 1377 154C1377 171 1379 187 1384 215L1472 692L1441 691C1414 690 1394 689 1383 689C1373 689 1353 690 1325 691L1293 692L1290 664L1342 662C1368 661 1376 656 1376 639C1376 630 1373 602 1369 581L1305 206C1301 185 1299 160 1299 144C1299 43 1366 -19 1478 -19C1522 -19 1563 -9 1611 15C1670 44 1702 69 1754 129C1746 83 1740 57 1727 2L1732 -3L1754 -3L1816 0C1820 0 1842 -1 1874 -2L1906 -3L1911 25L1851 29C1828 31 1819 37 1819 50C1819 65 1820 70 1825 106L1910 613C1916 651 1923 657 1961 661ZM2083 470C2140 543 2178 610 2212 696L2199 709C2163 697 2153 694 2102 679C2096 599 2072 533 2024 456L2039 446ZM2287 148C2282 97 2276 62 2265 16C2303 -2 2337 -11 2372 -11C2421 -11 2467 7 2518 47C2569 87 2590 124 2590 174C2590 228 2558 257 2484 271L2441 279C2381 290 2362 307 2362 348C2362 401 2407 442 2464 442C2505 442 2543 424 2559 397L2559 342L2582 342C2586 377 2590 404 2601 455C2562 474 2534 482 2501 482C2449 482 2388 452 2340 404C2314 377 2303 352 2303 316C2303 260 2334 228 2400 215L2463 203C2507 195 2523 177 2523 138C2523 73 2477 29 2406 29C2371 29 2340 40 2312 64L2312 148Z" stroke="rgb(0, 0, 0)" stroke-width="8" fill="rgb(0, 0, 0)" style="transform:matrix(0.017,0,0,-0.017,0,0);"></path></g></g></g></svg>