<svg xmlns="http://www.w3.org/2000/svg" width="174.3515625" height="47.5" style="width:174.3515625px;height:47.5px;font-family:Asana-Math, Asana;background:transparent;"><g><g><g><g><g><g style="transform:matrix(1,0,0,1,2,19);"><path d="M316 -3C388 -3 437 8 489 34C645 114 741 265 741 431C741 529 711 599 650 642C604 675 519 693 424 692L220 689L210 689C201 689 198 689 97 692L94 664L147 662C171 661 182 653 182 635C182 621 178 589 173 559L86 55C81 31 56 29 33 23L28 -3L121 0L176 0C211 0 282 -3 316 -3ZM384 655C566 655 649 579 649 415C649 225 549 41 329 41C285 41 236 46 168 56C168 68 169 75 172 93L268 650C291 650 349 655 384 655ZM794 152C794 46 839 -11 922 -11C977 -11 1037 15 1082 57C1144 116 1188 230 1188 331C1188 425 1138 482 1055 482C951 482 794 382 794 152ZM1018 444C1079 444 1112 399 1112 315C1112 219 1081 113 1037 60C1019 39 993 27 962 27C904 27 870 72 870 151C870 264 909 387 958 427C971 438 994 444 1018 444ZM1251 148C1246 97 1240 62 1229 16C1267 -2 1301 -11 1336 -11C1385 -11 1431 7 1482 47C1533 87 1554 124 1554 174C1554 228 1522 257 1448 271L1405 279C1345 290 1326 307 1326 348C1326 401 1371 442 1428 442C1469 442 1507 424 1523 397L1523 342L1546 342C1550 377 1554 404 1565 455C1526 474 1498 482 1465 482C1413 482 1352 452 1304 404C1278 377 1267 352 1267 316C1267 260 1298 228 1364 215L1427 203C1471 195 1487 177 1487 138C1487 73 1441 29 1370 29C1335 29 1304 40 1276 64L1276 148ZM1936 111L1912 94C1859 56 1811 36 1775 36C1728 36 1699 73 1699 133C1699 158 1702 185 1707 214C1724 218 1833 248 1858 259C1943 296 1982 342 1982 404C1982 451 1948 482 1898 482C1830 496 1720 423 1683 349C1653 299 1623 180 1623 113C1623 35 1667 -11 1739 -11C1796 -11 1852 17 1944 92ZM1721 274C1738 343 1758 386 1787 412C1805 428 1836 440 1860 440C1889 440 1908 420 1908 388C1908 344 1873 297 1821 272C1793 258 1757 247 1712 237ZM2421 -11C2477 -11 2592 62 2635 125C2676 186 2710 296 2710 371C2710 438 2687 482 2651 482C2609 482 2556 456 2504 409C2463 374 2443 348 2407 289L2431 408C2434 425 2436 440 2436 452C2436 471 2428 482 2414 482C2393 482 2355 461 2281 408L2253 388L2260 368L2292 389C2320 407 2331 412 2340 412C2350 412 2357 403 2357 389C2357 381 2355 361 2353 351L2295 8C2285 -52 2266 -143 2246 -233L2238 -270L2245 -276C2266 -269 2286 -264 2318 -259L2360 3C2381 -4 2403 -11 2421 -11ZM2388 165C2410 293 2517 424 2600 424C2626 424 2638 402 2638 356C2638 275 2598 156 2545 80C2525 51 2493 36 2452 36C2421 36 2396 43 2370 59ZM3072 111L3048 94C2995 56 2947 36 2911 36C2864 36 2835 73 2835 133C2835 158 2838 185 2843 214C2860 218 2969 248 2994 259C3079 296 3118 342 3118 404C3118 451 3084 482 3034 482C2966 496 2856 423 2819 349C2789 299 2759 180 2759 113C2759 35 2803 -11 2875 -11C2932 -11 2988 17 3080 92ZM2857 274C2874 343 2894 386 2923 412C2941 428 2972 440 2996 440C3025 440 3044 420 3044 388C3044 344 3009 297 2957 272C2929 258 2893 247 2848 237ZM3500 365C3503 403 3508 435 3516 476C3505 481 3501 482 3496 482C3465 482 3434 458 3398 407C3359 351 3320 291 3304 256L3336 408C3340 425 3342 438 3342 450C3342 470 3334 482 3319 482C3298 482 3260 461 3186 408L3158 388L3165 368L3197 389C3225 407 3236 412 3245 412C3255 412 3262 403 3262 390C3262 332 3219 126 3179 -2L3189 -9C3204 -4 3220 -1 3243 4L3256 6L3282 126C3300 209 3323 262 3367 319C3401 363 3428 384 3450 384C3465 384 3475 379 3486 365ZM4114 437L4098 437L4119 549C4135 635 4163 673 4209 673C4239 673 4266 658 4281 634L4291 638C4296 654 4306 685 4314 705L4319 720C4303 727 4272 733 4249 733C4238 733 4222 730 4214 726C4190 715 4108 654 4085 630C4063 608 4051 578 4040 521L4025 442C3984 422 3964 414 3939 405L3934 383L4015 383L4006 327C3976 132 3939 -54 3917 -123C3899 -182 3869 -213 3833 -213C3810 -213 3799 -206 3781 -184L3767 -188C3763 -211 3749 -259 3744 -268C3753 -273 3768 -276 3779 -276C3820 -276 3874 -245 3913 -198C3984 -114 4004 -18 4088 383L4192 383C4196 402 4203 425 4209 439L4205 446C4176 439 4177 437 4114 437ZM4353 388L4360 368L4392 389C4429 412 4432 414 4439 414C4449 414 4457 404 4457 391C4457 384 4453 361 4449 347L4383 107C4375 76 4370 49 4370 30C4370 6 4381 -9 4400 -9C4426 -9 4462 12 4560 85L4550 103L4524 86C4495 67 4472 56 4463 56C4456 56 4450 66 4450 76C4450 86 4452 95 4457 116L4534 420C4538 437 4540 448 4540 456C4540 473 4531 482 4515 482C4493 482 4456 461 4381 408ZM4547 712C4518 712 4489 679 4489 645C4489 620 4504 604 4528 604C4559 604 4583 633 4583 671C4583 695 4568 712 4547 712ZM4924 111L4900 94C4847 56 4799 36 4763 36C4716 36 4687 73 4687 133C4687 158 4690 185 4695 214C4712 218 4821 248 4846 259C4931 296 4970 342 4970 404C4970 451 4936 482 4886 482C4818 496 4708 423 4671 349C4641 299 4611 180 4611 113C4611 35 4655 -11 4727 -11C4784 -11 4840 17 4932 92ZM4709 274C4726 343 4746 386 4775 412C4793 428 4824 440 4848 440C4877 440 4896 420 4896 388C4896 344 4861 297 4809 272C4781 258 4745 247 4700 237ZM5235 722L5223 733C5171 707 5135 698 5063 691L5059 670L5107 670C5131 670 5141 663 5141 648C5141 645 5141 640 5138 622C5127 567 5054 182 5039 132C5026 82 5020 52 5020 31C5020 6 5031 -9 5050 -9C5076 -9 5112 12 5210 85L5200 103L5174 86C5145 67 5123 56 5113 56C5106 56 5100 66 5100 76C5100 82 5101 89 5104 104ZM5744 722L5732 733C5680 707 5644 698 5572 691L5568 670L5616 670C5640 670 5650 663 5650 646C5650 638 5649 629 5648 622L5620 468C5590 477 5563 482 5538 482C5469 482 5375 410 5329 323C5298 265 5278 170 5278 86C5278 21 5293 -11 5322 -11C5349 -11 5386 6 5420 33C5474 77 5507 116 5574 217L5551 126C5540 82 5535 50 5535 24C5535 3 5544 -9 5561 -9C5578 -9 5602 3 5636 28L5717 88L5707 107L5663 76C5649 66 5633 59 5624 59C5616 59 5610 68 5610 82C5610 90 5611 99 5618 128ZM5375 59C5359 59 5350 73 5350 98C5350 224 5396 380 5445 418C5458 428 5477 433 5504 433C5548 433 5577 427 5610 410L5598 351C5561 171 5420 59 5375 59Z" stroke="rgb(0, 0, 0)" stroke-width="8" fill="rgb(0, 0, 0)" style="transform:matrix(0.017,0,0,-0.017,0,0);"></path></g></g></g><g><g><g style="transform:matrix(1,0,0,1,9.2890625,45);"><path d="M105 664L160 662C184 661 195 653 195 635L112 125C95 34 94 31 54 28L13 25L9 -3L51 -2C92 -1 123 0 141 0C158 0 187 -1 227 -2L280 -3L283 25L218 28C192 29 182 37 182 58C182 67 183 74 186 93L284 648C320 654 336 656 355 656C457 656 506 612 506 519C506 411 434 323 346 323C324 323 304 328 267 342L269 311C306 293 326 288 355 288C484 288 594 405 594 541C594 642 531 695 412 692L108 692ZM926 -3C998 -3 1047 8 1099 34C1255 114 1351 265 1351 431C1351 529 1321 599 1260 642C1214 675 1129 693 1034 692L830 689L820 689C811 689 808 689 707 692L704 664L757 662C781 661 792 653 792 635C792 621 788 589 783 559L696 55C691 31 666 29 643 23L638 -3L731 0L786 0C821 0 892 -3 926 -3ZM994 655C1176 655 1259 579 1259 415C1259 225 1159 41 939 41C895 41 846 46 778 56C778 68 779 75 782 93L878 650C901 650 959 655 994 655ZM1703 -3C1775 -3 1824 8 1876 34C2032 114 2128 265 2128 431C2128 529 2098 599 2037 642C1991 675 1906 693 1811 692L1607 689L1597 689C1588 689 1585 689 1484 692L1481 664L1534 662C1558 661 1569 653 1569 635C1569 621 1565 589 1560 559L1473 55C1468 31 1443 29 1420 23L1415 -3L1508 0L1563 0C1598 0 1669 -3 1703 -3ZM1771 655C1953 655 2036 579 2036 415C2036 225 1936 41 1716 41C1672 41 1623 46 1555 56C1555 68 1556 75 1559 93L1655 650C1678 650 1736 655 1771 655ZM2581 267L2450 213L2445 204L2481 153L2491 153L2597 241L2615 99L2625 95L2693 121L2693 131L2625 253L2763 233L2772 241L2772 303L2766 307L2627 283L2696 408L2693 423L2631 442L2622 438L2596 295L2501 393L2491 393L2447 341L2450 331ZM3158 471C3158 386 3196 339 3280 319L3375 296C3429 283 3456 248 3456 191C3456 96 3385 30 3282 30C3228 30 3190 42 3146 73L3146 172L3116 172C3110 117 3103 72 3092 20C3141 -5 3194 -18 3247 -18C3402 -18 3535 99 3535 234C3535 313 3492 355 3391 377L3326 391C3260 405 3230 442 3230 508C3230 595 3297 658 3389 658C3438 658 3471 645 3501 613L3501 537L3531 537C3535 591 3542 629 3556 672C3511 696 3471 706 3424 706C3300 706 3158 614 3158 471ZM3650 284C3650 90 3757 -18 3948 -18C4044 -18 4115 5 4205 67L4215 103L4205 110C4111 53 4059 35 3981 35C3824 35 3738 131 3738 309C3738 447 3795 653 4023 653C4094 653 4146 639 4202 603L4202 519L4229 519C4234 576 4242 619 4256 665C4180 694 4123 706 4061 706C3881 706 3650 578 3650 284ZM4397 664L4452 662C4476 661 4487 653 4487 635L4404 125C4387 34 4386 31 4346 28L4305 25L4301 -3L4343 -2C4384 -1 4415 0 4433 0C4450 0 4479 -1 4519 -2L4572 -3L4575 25L4510 28C4484 29 4474 37 4474 58C4474 67 4475 74 4478 93L4576 648C4612 654 4628 656 4647 656C4749 656 4798 612 4798 519C4798 411 4726 323 4638 323C4616 323 4596 328 4559 342L4561 311C4598 293 4618 288 4647 288C4776 288 4886 405 4886 541C4886 642 4823 695 4704 692L4400 692Z" stroke="rgb(0, 0, 0)" stroke-width="8" fill="rgb(0, 0, 0)" style="transform:matrix(0.017,0,0,-0.017,0,0);"></path></g></g></g><line style="fill:none;stroke-width:1px;stroke:rgb(0, 0, 0);" x1="2" y1="27.25" x2="99.921875" y2="27.25"></line></g><g style="transform:matrix(1,0,0,1,101.6171875,31.5);"><path d="" stroke="rgb(0, 0, 0)" stroke-width="8" fill="rgb(0, 0, 0)" style="transform:matrix(0.017,0,0,-0.017,0,0);"></path></g><g style="transform:matrix(1,0,0,1,110.9453125,31.5);"><path d="M604 347L604 406L65 406L65 347ZM604 134L604 193L65 193L65 134Z" stroke="rgb(0, 0, 0)" stroke-width="8" fill="rgb(0, 0, 0)" style="transform:matrix(0.017,0,0,-0.017,0,0);"></path></g><g style="transform:matrix(1,0,0,1,127.3984375,31.5);"><path d="M1186 664L1199 695C1171 699 1024 701 1022 692L937 536L691 114L541 692C518 686 395 690 374 692L371 664L397 662C449 658 467 648 467 622C467 616 321 100 319 93C303 41 288 28 233 23L230 -3L269 -2C303 -1 328 0 342 0C356 0 382 -1 417 -2L452 -3L455 25L417 28C385 30 368 40 368 55C368 65 370 78 375 96L499 560L648 -18L671 -18L728 86L967 500L1019 587L982 67C978 39 966 32 915 28L884 25L881 -3L928 -2C970 -1 1000 0 1015 0C1031 0 1061 -1 1102 -2L1148 -3L1151 25L1114 28C1078 31 1060 42 1060 63L1061 100L1102 631C1104 650 1119 660 1148 662ZM1997 664L2000 692L1984 692L1893 689C1878 689 1857 689 1813 690L1750 692L1747 664L1795 662C1819 661 1830 653 1830 634C1830 629 1830 626 1829 622L1758 177C1710 119 1680 93 1629 68C1591 48 1554 39 1516 39C1431 39 1377 84 1377 154C1377 171 1379 187 1384 215L1472 692L1441 691C1414 690 1394 689 1383 689C1373 689 1353 690 1325 691L1293 692L1290 664L1342 662C1368 661 1376 656 1376 639C1376 630 1373 602 1369 581L1305 206C1301 185 1299 160 1299 144C1299 43 1366 -19 1478 -19C1522 -19 1563 -9 1611 15C1670 44 1702 69 1754 129C1746 83 1740 57 1727 2L1732 -3L1754 -3L1816 0C1820 0 1842 -1 1874 -2L1906 -3L1911 25L1851 29C1828 31 1819 37 1819 50C1819 65 1820 70 1825 106L1910 613C1916 651 1923 657 1961 661ZM2083 470C2140 543 2178 610 2212 696L2199 709C2163 697 2153 694 2102 679C2096 599 2072 533 2024 456L2039 446ZM2287 148C2282 97 2276 62 2265 16C2303 -2 2337 -11 2372 -11C2421 -11 2467 7 2518 47C2569 87 2590 124 2590 174C2590 228 2558 257 2484 271L2441 279C2381 290 2362 307 2362 348C2362 401 2407 442 2464 442C2505 442 2543 424 2559 397L2559 342L2582 342C2586 377 2590 404 2601 455C2562 474 2534 482 2501 482C2449 482 2388 452 2340 404C2314 377 2303 352 2303 316C2303 260 2334 228 2400 215L2463 203C2507 195 2523 177 2523 138C2523 73 2477 29 2406 29C2371 29 2340 40 2312 64L2312 148Z" stroke="rgb(0, 0, 0)" stroke-width="8" fill="rgb(0, 0, 0)" style="transform:matrix(0.017,0,0,-0.017,0,0);"></path></g></g></g></svg>